<mxfile host="Electron" agent="Mozilla/5.0 (Macintosh; Intel Mac OS X 10_15_7) AppleWebKit/537.36 (KHTML, like Gecko) draw.io/26.2.2 Chrome/134.0.6998.178 Electron/35.1.2 Safari/537.36" version="26.2.2" pages="2">
  <diagram name="serverless" id="wtxiz8nrKSm240LwYTof">
    <mxGraphModel dx="1599" dy="521" grid="1" gridSize="10" guides="1" tooltips="1" connect="1" arrows="1" fold="1" page="1" pageScale="1" pageWidth="850" pageHeight="1100" math="0" shadow="0">
      <root>
        <mxCell id="0" />
        <mxCell id="1" parent="0" />
        <mxCell id="PsaITgbuVJGiTN4fDYda-17" value="&lt;div&gt;&lt;span style=&quot;background-color: transparent; color: light-dark(rgb(51, 51, 51), rgb(193, 193, 193));&quot;&gt;Item Search API&lt;/span&gt;&lt;/div&gt;" style="outlineConnect=0;html=1;whiteSpace=wrap;fontSize=12;fontStyle=1;strokeColor=#66B2FF;fillColor=none;verticalAlign=top;align=center;fontColor=#333333;dashed=1;spacingTop=3;labelBackgroundColor=none;labelBorderColor=none;textShadow=0;strokeWidth=2;" vertex="1" parent="1">
          <mxGeometry y="680" width="320" height="520" as="geometry" />
        </mxCell>
        <mxCell id="PsaITgbuVJGiTN4fDYda-18" value="Amazon Bedrock&lt;div&gt;Converse API&lt;/div&gt;" style="sketch=0;points=[[0,0,0],[0.25,0,0],[0.5,0,0],[0.75,0,0],[1,0,0],[0,1,0],[0.25,1,0],[0.5,1,0],[0.75,1,0],[1,1,0],[0,0.25,0],[0,0.5,0],[0,0.75,0],[1,0.25,0],[1,0.5,0],[1,0.75,0]];outlineConnect=0;fontColor=#232F3E;fillColor=#01A88D;strokeColor=#ffffff;dashed=0;verticalLabelPosition=bottom;verticalAlign=top;align=center;html=1;fontSize=12;fontStyle=0;aspect=fixed;shape=mxgraph.aws4.resourceIcon;resIcon=mxgraph.aws4.bedrock;labelBackgroundColor=default;" vertex="1" parent="1">
          <mxGeometry x="520" y="200" width="78" height="78" as="geometry" />
        </mxCell>
        <mxCell id="PsaITgbuVJGiTN4fDYda-26" value="" style="edgeStyle=orthogonalEdgeStyle;rounded=0;orthogonalLoop=1;jettySize=auto;html=1;" edge="1" parent="1" source="PsaITgbuVJGiTN4fDYda-28" target="PsaITgbuVJGiTN4fDYda-30">
          <mxGeometry relative="1" as="geometry" />
        </mxCell>
        <mxCell id="PsaITgbuVJGiTN4fDYda-27" value="" style="edgeStyle=orthogonalEdgeStyle;rounded=0;orthogonalLoop=1;jettySize=auto;html=1;" edge="1" parent="1" source="PsaITgbuVJGiTN4fDYda-28" target="PsaITgbuVJGiTN4fDYda-46">
          <mxGeometry relative="1" as="geometry">
            <mxPoint x="120" y="759" as="targetPoint" />
          </mxGeometry>
        </mxCell>
        <mxCell id="PsaITgbuVJGiTN4fDYda-28" value="Amazon API Gateway&lt;div&gt;HTTP API&lt;/div&gt;" style="sketch=0;points=[[0,0,0],[0.25,0,0],[0.5,0,0],[0.75,0,0],[1,0,0],[0,1,0],[0.25,1,0],[0.5,1,0],[0.75,1,0],[1,1,0],[0,0.25,0],[0,0.5,0],[0,0.75,0],[1,0.25,0],[1,0.5,0],[1,0.75,0]];outlineConnect=0;fontColor=#232F3E;fillColor=#E7157B;strokeColor=#ffffff;dashed=0;verticalLabelPosition=bottom;verticalAlign=top;align=center;html=1;fontSize=12;fontStyle=0;aspect=fixed;shape=mxgraph.aws4.resourceIcon;resIcon=mxgraph.aws4.api_gateway;labelBackgroundColor=default;" vertex="1" parent="1">
          <mxGeometry x="201" y="720" width="78" height="78" as="geometry" />
        </mxCell>
        <mxCell id="PsaITgbuVJGiTN4fDYda-29" value="" style="edgeStyle=orthogonalEdgeStyle;rounded=0;orthogonalLoop=1;jettySize=auto;html=1;" edge="1" parent="1" source="PsaITgbuVJGiTN4fDYda-30" target="PsaITgbuVJGiTN4fDYda-45">
          <mxGeometry relative="1" as="geometry">
            <mxPoint x="240" y="1040" as="targetPoint" />
          </mxGeometry>
        </mxCell>
        <mxCell id="PsaITgbuVJGiTN4fDYda-30" value="AWS Lambda&lt;div&gt;Item Search MCP&lt;/div&gt;" style="sketch=0;outlineConnect=0;fontColor=#232F3E;gradientColor=none;fillColor=#ED7100;strokeColor=none;dashed=0;verticalLabelPosition=bottom;verticalAlign=top;align=center;html=1;fontSize=12;fontStyle=0;aspect=fixed;pointerEvents=1;shape=mxgraph.aws4.lambda_function;labelBackgroundColor=default;labelBorderColor=none;" vertex="1" parent="1">
          <mxGeometry x="200" y="880" width="80" height="80" as="geometry" />
        </mxCell>
        <mxCell id="PsaITgbuVJGiTN4fDYda-35" value="Recommendations API" style="outlineConnect=0;html=1;whiteSpace=wrap;fontSize=12;fontStyle=1;verticalAlign=top;align=center;dashed=1;spacingTop=3;labelBackgroundColor=none;labelBorderColor=none;textShadow=0;fillColor=none;strokeWidth=2;fillStyle=auto;fontColor=#333333;strokeColor=#EA6B66;opacity=50;" vertex="1" parent="1">
          <mxGeometry x="480" y="680" width="320" height="520" as="geometry" />
        </mxCell>
        <mxCell id="PsaITgbuVJGiTN4fDYda-36" value="Amazon Opensearch&lt;div&gt;RecSys Index&lt;/div&gt;" style="sketch=0;outlineConnect=0;fontColor=#232F3E;gradientColor=none;fillColor=#8C4FFF;strokeColor=none;dashed=0;verticalLabelPosition=bottom;verticalAlign=top;align=center;html=1;fontSize=12;fontStyle=0;aspect=fixed;pointerEvents=1;shape=mxgraph.aws4.opensearch_service_index;labelBackgroundColor=default;" vertex="1" parent="1">
          <mxGeometry x="521" y="1040" width="78" height="78" as="geometry" />
        </mxCell>
        <mxCell id="PsaITgbuVJGiTN4fDYda-37" value="" style="edgeStyle=orthogonalEdgeStyle;rounded=0;orthogonalLoop=1;jettySize=auto;html=1;" edge="1" parent="1" source="PsaITgbuVJGiTN4fDYda-39" target="PsaITgbuVJGiTN4fDYda-42">
          <mxGeometry relative="1" as="geometry" />
        </mxCell>
        <mxCell id="PsaITgbuVJGiTN4fDYda-38" value="" style="edgeStyle=orthogonalEdgeStyle;rounded=0;orthogonalLoop=1;jettySize=auto;html=1;" edge="1" parent="1" source="PsaITgbuVJGiTN4fDYda-39" target="PsaITgbuVJGiTN4fDYda-47">
          <mxGeometry relative="1" as="geometry">
            <mxPoint x="679" y="759" as="targetPoint" />
          </mxGeometry>
        </mxCell>
        <mxCell id="PsaITgbuVJGiTN4fDYda-39" value="Amazon API Gateway&lt;div&gt;HTTP API&lt;/div&gt;" style="sketch=0;points=[[0,0,0],[0.25,0,0],[0.5,0,0],[0.75,0,0],[1,0,0],[0,1,0],[0.25,1,0],[0.5,1,0],[0.75,1,0],[1,1,0],[0,0.25,0],[0,0.5,0],[0,0.75,0],[1,0.25,0],[1,0.5,0],[1,0.75,0]];outlineConnect=0;fontColor=#232F3E;fillColor=#E7157B;strokeColor=#ffffff;dashed=0;verticalLabelPosition=bottom;verticalAlign=top;align=center;html=1;fontSize=12;fontStyle=0;aspect=fixed;shape=mxgraph.aws4.resourceIcon;resIcon=mxgraph.aws4.api_gateway;labelBackgroundColor=default;" vertex="1" parent="1">
          <mxGeometry x="521" y="720" width="78" height="78" as="geometry" />
        </mxCell>
        <mxCell id="PsaITgbuVJGiTN4fDYda-40" value="" style="edgeStyle=orthogonalEdgeStyle;rounded=0;orthogonalLoop=1;jettySize=auto;html=1;" edge="1" parent="1" source="PsaITgbuVJGiTN4fDYda-42" target="PsaITgbuVJGiTN4fDYda-36">
          <mxGeometry relative="1" as="geometry" />
        </mxCell>
        <mxCell id="PsaITgbuVJGiTN4fDYda-41" value="" style="edgeStyle=orthogonalEdgeStyle;rounded=0;orthogonalLoop=1;jettySize=auto;html=1;" edge="1" parent="1" source="PsaITgbuVJGiTN4fDYda-42" target="PsaITgbuVJGiTN4fDYda-43">
          <mxGeometry relative="1" as="geometry" />
        </mxCell>
        <mxCell id="PsaITgbuVJGiTN4fDYda-42" value="AWS Lambda&lt;div&gt;Item Recsys MCP&lt;/div&gt;" style="sketch=0;outlineConnect=0;fontColor=#232F3E;gradientColor=none;fillColor=#ED7100;strokeColor=none;dashed=0;verticalLabelPosition=bottom;verticalAlign=top;align=center;html=1;fontSize=12;fontStyle=0;aspect=fixed;pointerEvents=1;shape=mxgraph.aws4.lambda_function;labelBackgroundColor=default;labelBorderColor=none;" vertex="1" parent="1">
          <mxGeometry x="520" y="880" width="80" height="80" as="geometry" />
        </mxCell>
        <mxCell id="PsaITgbuVJGiTN4fDYda-43" value="Amazon Bedrock&lt;div&gt;Embedding Model&lt;/div&gt;" style="sketch=0;points=[[0,0,0],[0.25,0,0],[0.5,0,0],[0.75,0,0],[1,0,0],[0,1,0],[0.25,1,0],[0.5,1,0],[0.75,1,0],[1,1,0],[0,0.25,0],[0,0.5,0],[0,0.75,0],[1,0.25,0],[1,0.5,0],[1,0.75,0]];outlineConnect=0;fontColor=#232F3E;fillColor=#01A88D;strokeColor=#ffffff;dashed=0;verticalLabelPosition=bottom;verticalAlign=top;align=center;html=1;fontSize=12;fontStyle=0;aspect=fixed;shape=mxgraph.aws4.resourceIcon;resIcon=mxgraph.aws4.bedrock;labelBackgroundColor=default;" vertex="1" parent="1">
          <mxGeometry x="679" y="1040" width="78" height="78" as="geometry" />
        </mxCell>
        <mxCell id="PsaITgbuVJGiTN4fDYda-64" value="Same&lt;div&gt;Cluster&lt;/div&gt;" style="edgeStyle=orthogonalEdgeStyle;rounded=0;orthogonalLoop=1;jettySize=auto;html=1;endArrow=none;startFill=0;dashed=1;" edge="1" parent="1" source="PsaITgbuVJGiTN4fDYda-45" target="PsaITgbuVJGiTN4fDYda-36">
          <mxGeometry relative="1" as="geometry" />
        </mxCell>
        <mxCell id="PsaITgbuVJGiTN4fDYda-45" value="Amazon Opensearch&lt;div&gt;Search Index&lt;/div&gt;" style="sketch=0;outlineConnect=0;fontColor=#232F3E;gradientColor=none;fillColor=#8C4FFF;strokeColor=none;dashed=0;verticalLabelPosition=bottom;verticalAlign=top;align=center;html=1;fontSize=12;fontStyle=0;aspect=fixed;pointerEvents=1;shape=mxgraph.aws4.opensearch_service_index;labelBackgroundColor=default;" vertex="1" parent="1">
          <mxGeometry x="201" y="1040" width="78" height="78" as="geometry" />
        </mxCell>
        <mxCell id="PsaITgbuVJGiTN4fDYda-46" value="AWS Lambda&lt;div&gt;Lambda Authorizer&lt;/div&gt;" style="sketch=0;outlineConnect=0;fontColor=#232F3E;gradientColor=none;fillColor=#ED7100;strokeColor=none;dashed=0;verticalLabelPosition=bottom;verticalAlign=top;align=center;html=1;fontSize=12;fontStyle=0;aspect=fixed;pointerEvents=1;shape=mxgraph.aws4.lambda_function;labelBackgroundColor=default;labelBorderColor=none;" vertex="1" parent="1">
          <mxGeometry x="39" y="719" width="80" height="80" as="geometry" />
        </mxCell>
        <mxCell id="PsaITgbuVJGiTN4fDYda-47" value="AWS Lambda&lt;div&gt;Lambda Authorizer&lt;/div&gt;" style="sketch=0;outlineConnect=0;fontColor=#232F3E;gradientColor=none;fillColor=#ED7100;strokeColor=none;dashed=0;verticalLabelPosition=bottom;verticalAlign=top;align=center;html=1;fontSize=12;fontStyle=0;aspect=fixed;pointerEvents=1;shape=mxgraph.aws4.lambda_function;labelBackgroundColor=default;labelBorderColor=none;" vertex="1" parent="1">
          <mxGeometry x="680" y="719" width="80" height="80" as="geometry" />
        </mxCell>
        <mxCell id="PsaITgbuVJGiTN4fDYda-73" style="edgeStyle=orthogonalEdgeStyle;rounded=0;orthogonalLoop=1;jettySize=auto;html=1;" edge="1" parent="1" source="PsaITgbuVJGiTN4fDYda-93" target="PsaITgbuVJGiTN4fDYda-39">
          <mxGeometry relative="1" as="geometry">
            <mxPoint x="400" y="439" as="sourcePoint" />
            <Array as="points">
              <mxPoint x="400" y="759" />
            </Array>
          </mxGeometry>
        </mxCell>
        <mxCell id="PsaITgbuVJGiTN4fDYda-74" style="edgeStyle=orthogonalEdgeStyle;rounded=0;orthogonalLoop=1;jettySize=auto;html=1;" edge="1" parent="1" source="PsaITgbuVJGiTN4fDYda-93" target="PsaITgbuVJGiTN4fDYda-28">
          <mxGeometry relative="1" as="geometry">
            <mxPoint x="390" y="439" as="sourcePoint" />
            <Array as="points">
              <mxPoint x="390" y="759" />
            </Array>
          </mxGeometry>
        </mxCell>
        <mxCell id="PsaITgbuVJGiTN4fDYda-53" value="" style="edgeStyle=orthogonalEdgeStyle;rounded=0;orthogonalLoop=1;jettySize=auto;html=1;" edge="1" parent="1" source="PsaITgbuVJGiTN4fDYda-55" target="PsaITgbuVJGiTN4fDYda-56">
          <mxGeometry relative="1" as="geometry" />
        </mxCell>
        <mxCell id="PsaITgbuVJGiTN4fDYda-94" value="" style="edgeStyle=orthogonalEdgeStyle;rounded=0;orthogonalLoop=1;jettySize=auto;html=1;" edge="1" parent="1" source="PsaITgbuVJGiTN4fDYda-55" target="PsaITgbuVJGiTN4fDYda-93">
          <mxGeometry relative="1" as="geometry" />
        </mxCell>
        <mxCell id="PsaITgbuVJGiTN4fDYda-55" value="Amazon API Gateway&lt;div&gt;HTTP API&lt;/div&gt;" style="sketch=0;points=[[0,0,0],[0.25,0,0],[0.5,0,0],[0.75,0,0],[1,0,0],[0,1,0],[0.25,1,0],[0.5,1,0],[0.75,1,0],[1,1,0],[0,0.25,0],[0,0.5,0],[0,0.75,0],[1,0.25,0],[1,0.5,0],[1,0.75,0]];outlineConnect=0;fontColor=#232F3E;fillColor=#E7157B;strokeColor=#ffffff;dashed=0;verticalLabelPosition=bottom;verticalAlign=top;align=center;html=1;fontSize=12;fontStyle=0;aspect=fixed;shape=mxgraph.aws4.resourceIcon;resIcon=mxgraph.aws4.api_gateway;labelBackgroundColor=default;" vertex="1" parent="1">
          <mxGeometry x="201" y="360" width="78" height="78" as="geometry" />
        </mxCell>
        <mxCell id="PsaITgbuVJGiTN4fDYda-56" value="Amazon Cognito&lt;div&gt;UserPool&lt;/div&gt;" style="sketch=0;points=[[0,0,0],[0.25,0,0],[0.5,0,0],[0.75,0,0],[1,0,0],[0,1,0],[0.25,1,0],[0.5,1,0],[0.75,1,0],[1,1,0],[0,0.25,0],[0,0.5,0],[0,0.75,0],[1,0.25,0],[1,0.5,0],[1,0.75,0]];outlineConnect=0;fontColor=#232F3E;fillColor=#DD344C;strokeColor=#ffffff;dashed=0;verticalLabelPosition=bottom;verticalAlign=top;align=center;html=1;fontSize=12;fontStyle=0;aspect=fixed;shape=mxgraph.aws4.resourceIcon;resIcon=mxgraph.aws4.cognito;labelBackgroundColor=default;" vertex="1" parent="1">
          <mxGeometry x="201" y="520" width="78" height="78" as="geometry" />
        </mxCell>
        <mxCell id="PsaITgbuVJGiTN4fDYda-72" value="" style="edgeStyle=orthogonalEdgeStyle;rounded=0;orthogonalLoop=1;jettySize=auto;html=1;" edge="1" parent="1" source="PsaITgbuVJGiTN4fDYda-71">
          <mxGeometry relative="1" as="geometry">
            <mxPoint x="-80" y="439" as="targetPoint" />
          </mxGeometry>
        </mxCell>
        <mxCell id="PsaITgbuVJGiTN4fDYda-89" value="" style="edgeStyle=orthogonalEdgeStyle;rounded=0;orthogonalLoop=1;jettySize=auto;html=1;" edge="1" parent="1" source="PsaITgbuVJGiTN4fDYda-87" target="PsaITgbuVJGiTN4fDYda-102">
          <mxGeometry relative="1" as="geometry">
            <mxPoint x="241.08" y="278" as="targetPoint" />
          </mxGeometry>
        </mxCell>
        <mxCell id="PsaITgbuVJGiTN4fDYda-96" style="edgeStyle=orthogonalEdgeStyle;rounded=0;orthogonalLoop=1;jettySize=auto;html=1;" edge="1" parent="1" source="PsaITgbuVJGiTN4fDYda-93" target="PsaITgbuVJGiTN4fDYda-95">
          <mxGeometry relative="1" as="geometry" />
        </mxCell>
        <mxCell id="PsaITgbuVJGiTN4fDYda-97" style="edgeStyle=orthogonalEdgeStyle;rounded=0;orthogonalLoop=1;jettySize=auto;html=1;" edge="1" parent="1" source="PsaITgbuVJGiTN4fDYda-93" target="PsaITgbuVJGiTN4fDYda-18">
          <mxGeometry relative="1" as="geometry">
            <Array as="points">
              <mxPoint x="400" y="240" />
            </Array>
          </mxGeometry>
        </mxCell>
        <mxCell id="PsaITgbuVJGiTN4fDYda-93" value="AWS Lambda&lt;div&gt;Streaming Response&lt;/div&gt;" style="sketch=0;outlineConnect=0;fontColor=#232F3E;gradientColor=none;fillColor=#ED7100;strokeColor=none;dashed=0;verticalLabelPosition=bottom;verticalAlign=top;align=center;html=1;fontSize=12;fontStyle=0;aspect=fixed;pointerEvents=1;shape=mxgraph.aws4.lambda_function;labelBackgroundColor=default;labelBorderColor=none;" vertex="1" parent="1">
          <mxGeometry x="361" y="359" width="80" height="80" as="geometry" />
        </mxCell>
        <mxCell id="PsaITgbuVJGiTN4fDYda-95" value="Amazon DynamoDB&lt;div&gt;ChatBot Table&lt;/div&gt;" style="sketch=0;points=[[0,0,0],[0.25,0,0],[0.5,0,0],[0.75,0,0],[1,0,0],[0,1,0],[0.25,1,0],[0.5,1,0],[0.75,1,0],[1,1,0],[0,0.25,0],[0,0.5,0],[0,0.75,0],[1,0.25,0],[1,0.5,0],[1,0.75,0]];outlineConnect=0;fontColor=#232F3E;fillColor=#C925D1;strokeColor=#ffffff;dashed=0;verticalLabelPosition=bottom;verticalAlign=top;align=center;html=1;fontSize=12;fontStyle=0;aspect=fixed;shape=mxgraph.aws4.resourceIcon;resIcon=mxgraph.aws4.dynamodb;labelBackgroundColor=default;" vertex="1" parent="1">
          <mxGeometry x="520" y="360" width="78" height="78" as="geometry" />
        </mxCell>
        <mxCell id="PsaITgbuVJGiTN4fDYda-102" value="Amazon S3&lt;div&gt;SPA Web Bucket&lt;/div&gt;" style="sketch=0;outlineConnect=0;fontColor=#232F3E;gradientColor=none;fillColor=#7AA116;strokeColor=none;dashed=0;verticalLabelPosition=bottom;verticalAlign=top;align=center;html=1;fontSize=12;fontStyle=0;aspect=fixed;pointerEvents=1;shape=mxgraph.aws4.bucket;labelBackgroundColor=default;" vertex="1" parent="1">
          <mxGeometry x="202.08000000000004" y="199" width="76.92" height="80" as="geometry" />
        </mxCell>
        <mxCell id="PsaITgbuVJGiTN4fDYda-114" value="" style="edgeStyle=orthogonalEdgeStyle;rounded=0;orthogonalLoop=1;jettySize=auto;html=1;" edge="1" parent="1" source="PsaITgbuVJGiTN4fDYda-103" target="PsaITgbuVJGiTN4fDYda-56">
          <mxGeometry relative="1" as="geometry" />
        </mxCell>
        <mxCell id="PsaITgbuVJGiTN4fDYda-103" value="Amazon API Gateway&lt;div&gt;Websocket API&lt;/div&gt;" style="sketch=0;points=[[0,0,0],[0.25,0,0],[0.5,0,0],[0.75,0,0],[1,0,0],[0,1,0],[0.25,1,0],[0.5,1,0],[0.75,1,0],[1,1,0],[0,0.25,0],[0,0.5,0],[0,0.75,0],[1,0.25,0],[1,0.5,0],[1,0.75,0]];outlineConnect=0;fontColor=#232F3E;fillColor=#E7157B;strokeColor=#ffffff;dashed=0;verticalLabelPosition=bottom;verticalAlign=top;align=center;html=1;fontSize=12;fontStyle=0;aspect=fixed;shape=mxgraph.aws4.resourceIcon;resIcon=mxgraph.aws4.api_gateway;labelBackgroundColor=default;" vertex="1" parent="1">
          <mxGeometry x="41" y="520" width="78" height="78" as="geometry" />
        </mxCell>
        <mxCell id="PsaITgbuVJGiTN4fDYda-107" value="" style="edgeStyle=orthogonalEdgeStyle;rounded=0;orthogonalLoop=1;jettySize=auto;html=1;" edge="1" parent="1" source="PsaITgbuVJGiTN4fDYda-105" target="PsaITgbuVJGiTN4fDYda-103">
          <mxGeometry relative="1" as="geometry" />
        </mxCell>
        <mxCell id="PsaITgbuVJGiTN4fDYda-105" value="AWS Lambda&lt;div&gt;Streaming Response&lt;/div&gt;" style="sketch=0;outlineConnect=0;fontColor=#232F3E;gradientColor=none;fillColor=#ED7100;strokeColor=none;dashed=0;verticalLabelPosition=bottom;verticalAlign=top;align=center;html=1;fontSize=12;fontStyle=0;aspect=fixed;pointerEvents=1;shape=mxgraph.aws4.lambda_function;labelBackgroundColor=default;labelBorderColor=none;" vertex="1" parent="1">
          <mxGeometry x="-122" y="519" width="80" height="80" as="geometry" />
        </mxCell>
        <mxCell id="PsaITgbuVJGiTN4fDYda-115" value="" style="edgeStyle=orthogonalEdgeStyle;rounded=0;orthogonalLoop=1;jettySize=auto;html=1;" edge="1" parent="1" source="PsaITgbuVJGiTN4fDYda-108" target="PsaITgbuVJGiTN4fDYda-87">
          <mxGeometry relative="1" as="geometry">
            <Array as="points">
              <mxPoint x="80" y="390" />
            </Array>
          </mxGeometry>
        </mxCell>
        <mxCell id="PsaITgbuVJGiTN4fDYda-116" style="edgeStyle=orthogonalEdgeStyle;rounded=0;orthogonalLoop=1;jettySize=auto;html=1;" edge="1" parent="1" source="PsaITgbuVJGiTN4fDYda-108" target="PsaITgbuVJGiTN4fDYda-55">
          <mxGeometry relative="1" as="geometry" />
        </mxCell>
        <mxCell id="PsaITgbuVJGiTN4fDYda-117" style="edgeStyle=orthogonalEdgeStyle;rounded=0;orthogonalLoop=1;jettySize=auto;html=1;" edge="1" parent="1" source="PsaITgbuVJGiTN4fDYda-108" target="PsaITgbuVJGiTN4fDYda-103">
          <mxGeometry relative="1" as="geometry">
            <Array as="points">
              <mxPoint x="80" y="410" />
            </Array>
          </mxGeometry>
        </mxCell>
        <mxCell id="PsaITgbuVJGiTN4fDYda-108" value="&lt;div&gt;User&lt;/div&gt;" style="sketch=0;outlineConnect=0;fontColor=#232F3E;gradientColor=none;fillColor=#232F3D;strokeColor=none;dashed=0;verticalLabelPosition=bottom;verticalAlign=top;align=center;html=1;fontSize=12;fontStyle=0;aspect=fixed;pointerEvents=1;shape=mxgraph.aws4.user;" vertex="1" parent="1">
          <mxGeometry x="-120" y="360" width="78" height="78" as="geometry" />
        </mxCell>
        <mxCell id="PsaITgbuVJGiTN4fDYda-111" value="" style="edgeStyle=orthogonalEdgeStyle;rounded=0;orthogonalLoop=1;jettySize=auto;html=1;" edge="1" parent="1" source="PsaITgbuVJGiTN4fDYda-109" target="PsaITgbuVJGiTN4fDYda-87">
          <mxGeometry relative="1" as="geometry" />
        </mxCell>
        <mxCell id="PsaITgbuVJGiTN4fDYda-109" value="Amazon WAF" style="sketch=0;points=[[0,0,0],[0.25,0,0],[0.5,0,0],[0.75,0,0],[1,0,0],[0,1,0],[0.25,1,0],[0.5,1,0],[0.75,1,0],[1,1,0],[0,0.25,0],[0,0.5,0],[0,0.75,0],[1,0.25,0],[1,0.5,0],[1,0.75,0]];outlineConnect=0;fontColor=#232F3E;fillColor=#DD344C;strokeColor=#ffffff;dashed=0;verticalLabelPosition=bottom;verticalAlign=top;align=center;html=1;fontSize=12;fontStyle=0;aspect=fixed;shape=mxgraph.aws4.resourceIcon;resIcon=mxgraph.aws4.waf;labelBackgroundColor=default;" vertex="1" parent="1">
          <mxGeometry x="-119.91999999999999" y="200" width="78" height="78" as="geometry" />
        </mxCell>
        <mxCell id="PsaITgbuVJGiTN4fDYda-87" value="Amazon CloudFront" style="sketch=0;points=[[0,0,0],[0.25,0,0],[0.5,0,0],[0.75,0,0],[1,0,0],[0,1,0],[0.25,1,0],[0.5,1,0],[0.75,1,0],[1,1,0],[0,0.25,0],[0,0.5,0],[0,0.75,0],[1,0.25,0],[1,0.5,0],[1,0.75,0]];outlineConnect=0;fontColor=#232F3E;fillColor=#8C4FFF;strokeColor=#ffffff;dashed=0;verticalLabelPosition=bottom;verticalAlign=top;align=center;html=1;fontSize=12;fontStyle=0;aspect=fixed;shape=mxgraph.aws4.resourceIcon;resIcon=mxgraph.aws4.cloudfront;labelBackgroundColor=default;" vertex="1" parent="1">
          <mxGeometry x="41.08000000000001" y="200" width="78" height="78" as="geometry" />
        </mxCell>
      </root>
    </mxGraphModel>
  </diagram>
  <diagram id="tR-Rt3LG2o3J_GeX6hOp" name="ecs">
    <mxGraphModel dx="2151" dy="904" grid="1" gridSize="10" guides="1" tooltips="1" connect="1" arrows="1" fold="1" page="1" pageScale="1" pageWidth="850" pageHeight="1100" math="0" shadow="0">
      <root>
        <mxCell id="0" />
        <mxCell id="1" parent="0" />
        <mxCell id="dqAGW3o-AUJ9RqKoSlo4-1" value="&lt;div&gt;&lt;span style=&quot;background-color: transparent; color: light-dark(rgb(51, 51, 51), rgb(193, 193, 193));&quot;&gt;Item Search API&lt;/span&gt;&lt;/div&gt;" style="outlineConnect=0;html=1;whiteSpace=wrap;fontSize=12;fontStyle=1;strokeColor=#66B2FF;fillColor=none;verticalAlign=top;align=center;fontColor=#333333;dashed=1;spacingTop=3;labelBackgroundColor=none;labelBorderColor=none;textShadow=0;strokeWidth=2;" vertex="1" parent="1">
          <mxGeometry y="760" width="320" height="520" as="geometry" />
        </mxCell>
        <mxCell id="dqAGW3o-AUJ9RqKoSlo4-2" value="Amazon Bedrock&lt;div&gt;Converse API&lt;/div&gt;" style="sketch=0;points=[[0,0,0],[0.25,0,0],[0.5,0,0],[0.75,0,0],[1,0,0],[0,1,0],[0.25,1,0],[0.5,1,0],[0.75,1,0],[1,1,0],[0,0.25,0],[0,0.5,0],[0,0.75,0],[1,0.25,0],[1,0.5,0],[1,0.75,0]];outlineConnect=0;fontColor=#232F3E;fillColor=#01A88D;strokeColor=#ffffff;dashed=0;verticalLabelPosition=bottom;verticalAlign=top;align=center;html=1;fontSize=12;fontStyle=0;aspect=fixed;shape=mxgraph.aws4.resourceIcon;resIcon=mxgraph.aws4.bedrock;labelBackgroundColor=default;" vertex="1" parent="1">
          <mxGeometry x="521" y="320" width="78" height="78" as="geometry" />
        </mxCell>
        <mxCell id="dqAGW3o-AUJ9RqKoSlo4-3" value="" style="edgeStyle=orthogonalEdgeStyle;rounded=0;orthogonalLoop=1;jettySize=auto;html=1;" edge="1" parent="1" source="dqAGW3o-AUJ9RqKoSlo4-5" target="dqAGW3o-AUJ9RqKoSlo4-7">
          <mxGeometry relative="1" as="geometry" />
        </mxCell>
        <mxCell id="dqAGW3o-AUJ9RqKoSlo4-4" value="" style="edgeStyle=orthogonalEdgeStyle;rounded=0;orthogonalLoop=1;jettySize=auto;html=1;" edge="1" parent="1" source="dqAGW3o-AUJ9RqKoSlo4-5" target="dqAGW3o-AUJ9RqKoSlo4-19">
          <mxGeometry relative="1" as="geometry">
            <mxPoint x="120" y="839" as="targetPoint" />
          </mxGeometry>
        </mxCell>
        <mxCell id="dqAGW3o-AUJ9RqKoSlo4-5" value="Amazon API Gateway&lt;div&gt;HTTP API&lt;/div&gt;" style="sketch=0;points=[[0,0,0],[0.25,0,0],[0.5,0,0],[0.75,0,0],[1,0,0],[0,1,0],[0.25,1,0],[0.5,1,0],[0.75,1,0],[1,1,0],[0,0.25,0],[0,0.5,0],[0,0.75,0],[1,0.25,0],[1,0.5,0],[1,0.75,0]];outlineConnect=0;fontColor=#232F3E;fillColor=#E7157B;strokeColor=#ffffff;dashed=0;verticalLabelPosition=bottom;verticalAlign=top;align=center;html=1;fontSize=12;fontStyle=0;aspect=fixed;shape=mxgraph.aws4.resourceIcon;resIcon=mxgraph.aws4.api_gateway;labelBackgroundColor=default;" vertex="1" parent="1">
          <mxGeometry x="201" y="800" width="78" height="78" as="geometry" />
        </mxCell>
        <mxCell id="dqAGW3o-AUJ9RqKoSlo4-6" value="" style="edgeStyle=orthogonalEdgeStyle;rounded=0;orthogonalLoop=1;jettySize=auto;html=1;" edge="1" parent="1" source="dqAGW3o-AUJ9RqKoSlo4-7" target="dqAGW3o-AUJ9RqKoSlo4-18">
          <mxGeometry relative="1" as="geometry">
            <mxPoint x="240" y="1120" as="targetPoint" />
          </mxGeometry>
        </mxCell>
        <mxCell id="dqAGW3o-AUJ9RqKoSlo4-7" value="AWS Lambda&lt;div&gt;Item Search MCP&lt;/div&gt;" style="sketch=0;outlineConnect=0;fontColor=#232F3E;gradientColor=none;fillColor=#ED7100;strokeColor=none;dashed=0;verticalLabelPosition=bottom;verticalAlign=top;align=center;html=1;fontSize=12;fontStyle=0;aspect=fixed;pointerEvents=1;shape=mxgraph.aws4.lambda_function;labelBackgroundColor=default;labelBorderColor=none;" vertex="1" parent="1">
          <mxGeometry x="200" y="960" width="80" height="80" as="geometry" />
        </mxCell>
        <mxCell id="dqAGW3o-AUJ9RqKoSlo4-8" value="Recommendations API" style="outlineConnect=0;html=1;whiteSpace=wrap;fontSize=12;fontStyle=1;verticalAlign=top;align=center;dashed=1;spacingTop=3;labelBackgroundColor=none;labelBorderColor=none;textShadow=0;fillColor=none;strokeWidth=2;fillStyle=auto;fontColor=#333333;strokeColor=#EA6B66;opacity=50;" vertex="1" parent="1">
          <mxGeometry x="480" y="760" width="320" height="520" as="geometry" />
        </mxCell>
        <mxCell id="dqAGW3o-AUJ9RqKoSlo4-9" value="Amazon Opensearch&lt;div&gt;RecSys Index&lt;/div&gt;" style="sketch=0;outlineConnect=0;fontColor=#232F3E;gradientColor=none;fillColor=#8C4FFF;strokeColor=none;dashed=0;verticalLabelPosition=bottom;verticalAlign=top;align=center;html=1;fontSize=12;fontStyle=0;aspect=fixed;pointerEvents=1;shape=mxgraph.aws4.opensearch_service_index;labelBackgroundColor=default;" vertex="1" parent="1">
          <mxGeometry x="521" y="1120" width="78" height="78" as="geometry" />
        </mxCell>
        <mxCell id="dqAGW3o-AUJ9RqKoSlo4-10" value="" style="edgeStyle=orthogonalEdgeStyle;rounded=0;orthogonalLoop=1;jettySize=auto;html=1;" edge="1" parent="1" source="dqAGW3o-AUJ9RqKoSlo4-12" target="dqAGW3o-AUJ9RqKoSlo4-15">
          <mxGeometry relative="1" as="geometry" />
        </mxCell>
        <mxCell id="dqAGW3o-AUJ9RqKoSlo4-11" value="" style="edgeStyle=orthogonalEdgeStyle;rounded=0;orthogonalLoop=1;jettySize=auto;html=1;" edge="1" parent="1" source="dqAGW3o-AUJ9RqKoSlo4-12" target="dqAGW3o-AUJ9RqKoSlo4-20">
          <mxGeometry relative="1" as="geometry">
            <mxPoint x="679" y="839" as="targetPoint" />
          </mxGeometry>
        </mxCell>
        <mxCell id="dqAGW3o-AUJ9RqKoSlo4-12" value="Amazon API Gateway&lt;div&gt;HTTP API&lt;/div&gt;" style="sketch=0;points=[[0,0,0],[0.25,0,0],[0.5,0,0],[0.75,0,0],[1,0,0],[0,1,0],[0.25,1,0],[0.5,1,0],[0.75,1,0],[1,1,0],[0,0.25,0],[0,0.5,0],[0,0.75,0],[1,0.25,0],[1,0.5,0],[1,0.75,0]];outlineConnect=0;fontColor=#232F3E;fillColor=#E7157B;strokeColor=#ffffff;dashed=0;verticalLabelPosition=bottom;verticalAlign=top;align=center;html=1;fontSize=12;fontStyle=0;aspect=fixed;shape=mxgraph.aws4.resourceIcon;resIcon=mxgraph.aws4.api_gateway;labelBackgroundColor=default;" vertex="1" parent="1">
          <mxGeometry x="521" y="800" width="78" height="78" as="geometry" />
        </mxCell>
        <mxCell id="dqAGW3o-AUJ9RqKoSlo4-13" value="" style="edgeStyle=orthogonalEdgeStyle;rounded=0;orthogonalLoop=1;jettySize=auto;html=1;" edge="1" parent="1" source="dqAGW3o-AUJ9RqKoSlo4-15" target="dqAGW3o-AUJ9RqKoSlo4-9">
          <mxGeometry relative="1" as="geometry" />
        </mxCell>
        <mxCell id="dqAGW3o-AUJ9RqKoSlo4-14" value="" style="edgeStyle=orthogonalEdgeStyle;rounded=0;orthogonalLoop=1;jettySize=auto;html=1;" edge="1" parent="1" source="dqAGW3o-AUJ9RqKoSlo4-15" target="dqAGW3o-AUJ9RqKoSlo4-16">
          <mxGeometry relative="1" as="geometry" />
        </mxCell>
        <mxCell id="dqAGW3o-AUJ9RqKoSlo4-15" value="AWS Lambda&lt;div&gt;Item Recsys MCP&lt;/div&gt;" style="sketch=0;outlineConnect=0;fontColor=#232F3E;gradientColor=none;fillColor=#ED7100;strokeColor=none;dashed=0;verticalLabelPosition=bottom;verticalAlign=top;align=center;html=1;fontSize=12;fontStyle=0;aspect=fixed;pointerEvents=1;shape=mxgraph.aws4.lambda_function;labelBackgroundColor=default;labelBorderColor=none;" vertex="1" parent="1">
          <mxGeometry x="520" y="960" width="80" height="80" as="geometry" />
        </mxCell>
        <mxCell id="dqAGW3o-AUJ9RqKoSlo4-16" value="Amazon Bedrock&lt;div&gt;Embedding Model&lt;/div&gt;" style="sketch=0;points=[[0,0,0],[0.25,0,0],[0.5,0,0],[0.75,0,0],[1,0,0],[0,1,0],[0.25,1,0],[0.5,1,0],[0.75,1,0],[1,1,0],[0,0.25,0],[0,0.5,0],[0,0.75,0],[1,0.25,0],[1,0.5,0],[1,0.75,0]];outlineConnect=0;fontColor=#232F3E;fillColor=#01A88D;strokeColor=#ffffff;dashed=0;verticalLabelPosition=bottom;verticalAlign=top;align=center;html=1;fontSize=12;fontStyle=0;aspect=fixed;shape=mxgraph.aws4.resourceIcon;resIcon=mxgraph.aws4.bedrock;labelBackgroundColor=default;" vertex="1" parent="1">
          <mxGeometry x="679" y="1120" width="78" height="78" as="geometry" />
        </mxCell>
        <mxCell id="dqAGW3o-AUJ9RqKoSlo4-17" value="Same&lt;div&gt;Cluster&lt;/div&gt;" style="edgeStyle=orthogonalEdgeStyle;rounded=0;orthogonalLoop=1;jettySize=auto;html=1;endArrow=none;startFill=0;dashed=1;" edge="1" parent="1" source="dqAGW3o-AUJ9RqKoSlo4-18" target="dqAGW3o-AUJ9RqKoSlo4-9">
          <mxGeometry relative="1" as="geometry" />
        </mxCell>
        <mxCell id="dqAGW3o-AUJ9RqKoSlo4-18" value="Amazon Opensearch&lt;div&gt;Search Index&lt;/div&gt;" style="sketch=0;outlineConnect=0;fontColor=#232F3E;gradientColor=none;fillColor=#8C4FFF;strokeColor=none;dashed=0;verticalLabelPosition=bottom;verticalAlign=top;align=center;html=1;fontSize=12;fontStyle=0;aspect=fixed;pointerEvents=1;shape=mxgraph.aws4.opensearch_service_index;labelBackgroundColor=default;" vertex="1" parent="1">
          <mxGeometry x="201" y="1120" width="78" height="78" as="geometry" />
        </mxCell>
        <mxCell id="dqAGW3o-AUJ9RqKoSlo4-19" value="AWS Lambda&lt;div&gt;Lambda Authorizer&lt;/div&gt;" style="sketch=0;outlineConnect=0;fontColor=#232F3E;gradientColor=none;fillColor=#ED7100;strokeColor=none;dashed=0;verticalLabelPosition=bottom;verticalAlign=top;align=center;html=1;fontSize=12;fontStyle=0;aspect=fixed;pointerEvents=1;shape=mxgraph.aws4.lambda_function;labelBackgroundColor=default;labelBorderColor=none;" vertex="1" parent="1">
          <mxGeometry x="39" y="799" width="80" height="80" as="geometry" />
        </mxCell>
        <mxCell id="dqAGW3o-AUJ9RqKoSlo4-20" value="AWS Lambda&lt;div&gt;Lambda Authorizer&lt;/div&gt;" style="sketch=0;outlineConnect=0;fontColor=#232F3E;gradientColor=none;fillColor=#ED7100;strokeColor=none;dashed=0;verticalLabelPosition=bottom;verticalAlign=top;align=center;html=1;fontSize=12;fontStyle=0;aspect=fixed;pointerEvents=1;shape=mxgraph.aws4.lambda_function;labelBackgroundColor=default;labelBorderColor=none;" vertex="1" parent="1">
          <mxGeometry x="680" y="799" width="80" height="80" as="geometry" />
        </mxCell>
        <mxCell id="dqAGW3o-AUJ9RqKoSlo4-24" value="" style="edgeStyle=orthogonalEdgeStyle;rounded=0;orthogonalLoop=1;jettySize=auto;html=1;" edge="1" parent="1" target="dqAGW3o-AUJ9RqKoSlo4-44">
          <mxGeometry relative="1" as="geometry">
            <mxPoint x="280" y="519" as="sourcePoint" />
            <mxPoint x="362.0009098974092" y="519" as="targetPoint" />
          </mxGeometry>
        </mxCell>
        <mxCell id="dqAGW3o-AUJ9RqKoSlo4-26" value="Amazon Cognito&lt;div&gt;UserPool&lt;/div&gt;" style="sketch=0;points=[[0,0,0],[0.25,0,0],[0.5,0,0],[0.75,0,0],[1,0,0],[0,1,0],[0.25,1,0],[0.5,1,0],[0.75,1,0],[1,1,0],[0,0.25,0],[0,0.5,0],[0,0.75,0],[1,0.25,0],[1,0.5,0],[1,0.75,0]];outlineConnect=0;fontColor=#232F3E;fillColor=#DD344C;strokeColor=#ffffff;dashed=0;verticalLabelPosition=bottom;verticalAlign=top;align=center;html=1;fontSize=12;fontStyle=0;aspect=fixed;shape=mxgraph.aws4.resourceIcon;resIcon=mxgraph.aws4.cognito;labelBackgroundColor=default;" vertex="1" parent="1">
          <mxGeometry x="199.99999999999997" y="320" width="78" height="78" as="geometry" />
        </mxCell>
        <mxCell id="dqAGW3o-AUJ9RqKoSlo4-27" value="" style="edgeStyle=orthogonalEdgeStyle;rounded=0;orthogonalLoop=1;jettySize=auto;html=1;" edge="1" parent="1" source="dqAGW3o-AUJ9RqKoSlo4-43" target="dqAGW3o-AUJ9RqKoSlo4-32">
          <mxGeometry relative="1" as="geometry">
            <mxPoint x="242.08" y="398" as="targetPoint" />
          </mxGeometry>
        </mxCell>
        <mxCell id="dqAGW3o-AUJ9RqKoSlo4-28" style="edgeStyle=orthogonalEdgeStyle;rounded=0;orthogonalLoop=1;jettySize=auto;html=1;" edge="1" parent="1" source="dqAGW3o-AUJ9RqKoSlo4-44" target="dqAGW3o-AUJ9RqKoSlo4-31">
          <mxGeometry relative="1" as="geometry">
            <mxPoint x="441.99909010259125" y="519" as="sourcePoint" />
          </mxGeometry>
        </mxCell>
        <mxCell id="dqAGW3o-AUJ9RqKoSlo4-31" value="Amazon DynamoDB&lt;div&gt;ChatBot Table&lt;/div&gt;" style="sketch=0;points=[[0,0,0],[0.25,0,0],[0.5,0,0],[0.75,0,0],[1,0,0],[0,1,0],[0.25,1,0],[0.5,1,0],[0.75,1,0],[1,1,0],[0,0.25,0],[0,0.5,0],[0,0.75,0],[1,0.25,0],[1,0.5,0],[1,0.75,0]];outlineConnect=0;fontColor=#232F3E;fillColor=#C925D1;strokeColor=#ffffff;dashed=0;verticalLabelPosition=bottom;verticalAlign=top;align=center;html=1;fontSize=12;fontStyle=0;aspect=fixed;shape=mxgraph.aws4.resourceIcon;resIcon=mxgraph.aws4.dynamodb;labelBackgroundColor=default;" vertex="1" parent="1">
          <mxGeometry x="521" y="480" width="78" height="78" as="geometry" />
        </mxCell>
        <mxCell id="dqAGW3o-AUJ9RqKoSlo4-32" value="Amazon S3&lt;div&gt;SPA Web Bucket&lt;/div&gt;" style="sketch=0;outlineConnect=0;fontColor=#232F3E;gradientColor=none;fillColor=#7AA116;strokeColor=none;dashed=0;verticalLabelPosition=bottom;verticalAlign=top;align=center;html=1;fontSize=12;fontStyle=0;aspect=fixed;pointerEvents=1;shape=mxgraph.aws4.bucket;labelBackgroundColor=default;" vertex="1" parent="1">
          <mxGeometry x="40.00000000000004" y="160" width="76.92" height="80" as="geometry" />
        </mxCell>
        <mxCell id="dqAGW3o-AUJ9RqKoSlo4-38" style="edgeStyle=orthogonalEdgeStyle;rounded=0;orthogonalLoop=1;jettySize=auto;html=1;" edge="1" parent="1" source="dqAGW3o-AUJ9RqKoSlo4-40">
          <mxGeometry relative="1" as="geometry">
            <mxPoint x="202" y="519" as="targetPoint" />
          </mxGeometry>
        </mxCell>
        <mxCell id="O4Sws-Wvcqy0PqrQIatO-1" value="" style="edgeStyle=orthogonalEdgeStyle;rounded=0;orthogonalLoop=1;jettySize=auto;html=1;" edge="1" parent="1" source="dqAGW3o-AUJ9RqKoSlo4-40" target="dqAGW3o-AUJ9RqKoSlo4-43">
          <mxGeometry relative="1" as="geometry" />
        </mxCell>
        <mxCell id="dqAGW3o-AUJ9RqKoSlo4-40" value="&lt;div&gt;User&lt;/div&gt;" style="sketch=0;outlineConnect=0;fontColor=#232F3E;gradientColor=none;fillColor=#232F3D;strokeColor=none;dashed=0;verticalLabelPosition=bottom;verticalAlign=top;align=center;html=1;fontSize=12;fontStyle=0;aspect=fixed;pointerEvents=1;shape=mxgraph.aws4.user;" vertex="1" parent="1">
          <mxGeometry x="40" y="480" width="78" height="78" as="geometry" />
        </mxCell>
        <mxCell id="dqAGW3o-AUJ9RqKoSlo4-41" value="" style="edgeStyle=orthogonalEdgeStyle;rounded=0;orthogonalLoop=1;jettySize=auto;html=1;" edge="1" parent="1" source="dqAGW3o-AUJ9RqKoSlo4-42" target="dqAGW3o-AUJ9RqKoSlo4-43">
          <mxGeometry relative="1" as="geometry" />
        </mxCell>
        <mxCell id="dqAGW3o-AUJ9RqKoSlo4-42" value="Amazon WAF" style="sketch=0;points=[[0,0,0],[0.25,0,0],[0.5,0,0],[0.75,0,0],[1,0,0],[0,1,0],[0.25,1,0],[0.5,1,0],[0.75,1,0],[1,1,0],[0,0.25,0],[0,0.5,0],[0,0.75,0],[1,0.25,0],[1,0.5,0],[1,0.75,0]];outlineConnect=0;fontColor=#232F3E;fillColor=#DD344C;strokeColor=#ffffff;dashed=0;verticalLabelPosition=bottom;verticalAlign=top;align=center;html=1;fontSize=12;fontStyle=0;aspect=fixed;shape=mxgraph.aws4.resourceIcon;resIcon=mxgraph.aws4.waf;labelBackgroundColor=default;" vertex="1" parent="1">
          <mxGeometry x="-118.91999999999999" y="320" width="78" height="78" as="geometry" />
        </mxCell>
        <mxCell id="dqAGW3o-AUJ9RqKoSlo4-46" value="" style="edgeStyle=orthogonalEdgeStyle;rounded=0;orthogonalLoop=1;jettySize=auto;html=1;" edge="1" parent="1" source="dqAGW3o-AUJ9RqKoSlo4-43" target="dqAGW3o-AUJ9RqKoSlo4-26">
          <mxGeometry relative="1" as="geometry" />
        </mxCell>
        <mxCell id="dqAGW3o-AUJ9RqKoSlo4-43" value="Amazon CloudFront" style="sketch=0;points=[[0,0,0],[0.25,0,0],[0.5,0,0],[0.75,0,0],[1,0,0],[0,1,0],[0.25,1,0],[0.5,1,0],[0.75,1,0],[1,1,0],[0,0.25,0],[0,0.5,0],[0,0.75,0],[1,0.25,0],[1,0.5,0],[1,0.75,0]];outlineConnect=0;fontColor=#232F3E;fillColor=#8C4FFF;strokeColor=#ffffff;dashed=0;verticalLabelPosition=bottom;verticalAlign=top;align=center;html=1;fontSize=12;fontStyle=0;aspect=fixed;shape=mxgraph.aws4.resourceIcon;resIcon=mxgraph.aws4.cloudfront;labelBackgroundColor=default;" vertex="1" parent="1">
          <mxGeometry x="40.000000000000014" y="320" width="78" height="78" as="geometry" />
        </mxCell>
        <mxCell id="dqAGW3o-AUJ9RqKoSlo4-48" style="edgeStyle=orthogonalEdgeStyle;rounded=0;orthogonalLoop=1;jettySize=auto;html=1;" edge="1" parent="1" source="dqAGW3o-AUJ9RqKoSlo4-44" target="dqAGW3o-AUJ9RqKoSlo4-26">
          <mxGeometry relative="1" as="geometry">
            <Array as="points">
              <mxPoint x="390" y="359" />
            </Array>
          </mxGeometry>
        </mxCell>
        <mxCell id="dqAGW3o-AUJ9RqKoSlo4-49" style="edgeStyle=orthogonalEdgeStyle;rounded=0;orthogonalLoop=1;jettySize=auto;html=1;" edge="1" parent="1" source="dqAGW3o-AUJ9RqKoSlo4-44" target="dqAGW3o-AUJ9RqKoSlo4-5">
          <mxGeometry relative="1" as="geometry">
            <Array as="points">
              <mxPoint x="390" y="840" />
            </Array>
          </mxGeometry>
        </mxCell>
        <mxCell id="dqAGW3o-AUJ9RqKoSlo4-50" style="edgeStyle=orthogonalEdgeStyle;rounded=0;orthogonalLoop=1;jettySize=auto;html=1;" edge="1" parent="1" source="dqAGW3o-AUJ9RqKoSlo4-44" target="dqAGW3o-AUJ9RqKoSlo4-12">
          <mxGeometry relative="1" as="geometry">
            <Array as="points">
              <mxPoint x="410" y="840" />
            </Array>
          </mxGeometry>
        </mxCell>
        <mxCell id="dqAGW3o-AUJ9RqKoSlo4-44" value="Amazon ECS&lt;div&gt;Chatbot Service&lt;/div&gt;" style="sketch=0;points=[[0,0,0],[0.25,0,0],[0.5,0,0],[0.75,0,0],[1,0,0],[0,1,0],[0.25,1,0],[0.5,1,0],[0.75,1,0],[1,1,0],[0,0.25,0],[0,0.5,0],[0,0.75,0],[1,0.25,0],[1,0.5,0],[1,0.75,0]];outlineConnect=0;fontColor=#232F3E;fillColor=#ED7100;strokeColor=#ffffff;dashed=0;verticalLabelPosition=bottom;verticalAlign=top;align=center;html=1;fontSize=12;fontStyle=0;aspect=fixed;shape=mxgraph.aws4.resourceIcon;resIcon=mxgraph.aws4.fargate;labelBorderColor=none;labelBackgroundColor=default;" vertex="1" parent="1">
          <mxGeometry x="360" y="480" width="78" height="78" as="geometry" />
        </mxCell>
        <mxCell id="dqAGW3o-AUJ9RqKoSlo4-47" style="edgeStyle=orthogonalEdgeStyle;rounded=0;orthogonalLoop=1;jettySize=auto;html=1;entryX=0;entryY=0.5;entryDx=0;entryDy=0;entryPerimeter=0;" edge="1" parent="1" source="dqAGW3o-AUJ9RqKoSlo4-44" target="dqAGW3o-AUJ9RqKoSlo4-2">
          <mxGeometry relative="1" as="geometry">
            <Array as="points">
              <mxPoint x="410" y="359" />
            </Array>
          </mxGeometry>
        </mxCell>
        <mxCell id="fsV3J8ZMP7UUpJntKm21-3" value="" style="edgeStyle=orthogonalEdgeStyle;rounded=0;orthogonalLoop=1;jettySize=auto;html=1;" edge="1" parent="1" source="fsV3J8ZMP7UUpJntKm21-2" target="dqAGW3o-AUJ9RqKoSlo4-45">
          <mxGeometry relative="1" as="geometry" />
        </mxCell>
        <mxCell id="fsV3J8ZMP7UUpJntKm21-2" value="Amazon WAF" style="sketch=0;points=[[0,0,0],[0.25,0,0],[0.5,0,0],[0.75,0,0],[1,0,0],[0,1,0],[0.25,1,0],[0.5,1,0],[0.75,1,0],[1,1,0],[0,0.25,0],[0,0.5,0],[0,0.75,0],[1,0.25,0],[1,0.5,0],[1,0.75,0]];outlineConnect=0;fontColor=#232F3E;fillColor=#DD344C;strokeColor=#ffffff;dashed=0;verticalLabelPosition=bottom;verticalAlign=top;align=center;html=1;fontSize=12;fontStyle=0;aspect=fixed;shape=mxgraph.aws4.resourceIcon;resIcon=mxgraph.aws4.waf;labelBackgroundColor=default;" vertex="1" parent="1">
          <mxGeometry x="200.00000000000003" y="640" width="78" height="78" as="geometry" />
        </mxCell>
        <mxCell id="dqAGW3o-AUJ9RqKoSlo4-45" value="Amazon ALB" style="sketch=0;outlineConnect=0;fontColor=#232F3E;gradientColor=none;fillColor=#8C4FFF;strokeColor=none;dashed=0;verticalLabelPosition=bottom;verticalAlign=top;align=center;html=1;fontSize=12;fontStyle=0;aspect=fixed;pointerEvents=1;shape=mxgraph.aws4.application_load_balancer;labelBackgroundColor=default;" vertex="1" parent="1">
          <mxGeometry x="200" y="480" width="78" height="78" as="geometry" />
        </mxCell>
      </root>
    </mxGraphModel>
  </diagram>
</mxfile>
